<?xml version="1.0" encoding="UTF-8" standalone="no"?>
<!-- Created with Inkscape (http://www.inkscape.org/) -->

<svg
   xmlns:dc="http://purl.org/dc/elements/1.1/"
   xmlns:cc="http://creativecommons.org/ns#"
   xmlns:rdf="http://www.w3.org/1999/02/22-rdf-syntax-ns#"
   xmlns:svg="http://www.w3.org/2000/svg"
   xmlns="http://www.w3.org/2000/svg"
   xmlns:sodipodi="http://sodipodi.sourceforge.net/DTD/sodipodi-0.dtd"
   xmlns:inkscape="http://www.inkscape.org/namespaces/inkscape"
   width="32"
   height="32"
   id="svg2"
   version="1.1"
   inkscape:version="0.48.5 r10040"
   sodipodi:docname="9-engines.svg">
  <defs
     id="defs4" />
  <sodipodi:namedview
     id="base"
     pagecolor="#ffffff"
     bordercolor="#666666"
     borderopacity="1.0"
     inkscape:pageopacity="0.0"
     inkscape:pageshadow="2"
     inkscape:zoom="1"
     inkscape:cx="103.59842"
     inkscape:cy="149.43824"
     inkscape:document-units="px"
     inkscape:current-layer="layer1"
     showgrid="true">
    <inkscape:grid
       type="xygrid"
       id="grid2985"
       empspacing="4"
       visible="true"
       enabled="true"
       snapvisiblegridlinesonly="true" />
  </sodipodi:namedview>
  <metadata
     id="metadata7">
    <rdf:RDF>
      <cc:Work
         rdf:about="">
        <dc:format>image/svg+xml</dc:format>
        <dc:type
           rdf:resource="http://purl.org/dc/dcmitype/StillImage" />
        <dc:title></dc:title>
      </cc:Work>
    </rdf:RDF>
  </metadata>
  <g
     inkscape:label="Layer 1"
     inkscape:groupmode="layer"
     id="layer1"
     transform="translate(0,-1020.3622)">
    <path
       sodipodi:type="arc"
       style="fill:#202020;stroke:none"
       id="path2987"
       sodipodi:cx="16"
       sodipodi:cy="16"
       sodipodi:rx="4"
       sodipodi:ry="4"
       d="m 20,16 a 4,4 0 1 1 -8,0 4,4 0 1 1 8,0 z"
       transform="translate(0,1020.3622)" />
    <path
       transform="matrix(0.70710678,-0.70710678,0.70710678,0.70710678,-14.405592,1044.1404)"
       d="m 20,16 a 4,4 0 1 1 -8,0 4,4 0 1 1 8,0 z"
       sodipodi:ry="4"
       sodipodi:rx="4"
       sodipodi:cy="16"
       sodipodi:cx="16"
       id="path3027"
       style="fill:#202020;stroke:none"
       sodipodi:type="arc" />
    <path
       sodipodi:type="arc"
       style="fill:#202020;stroke:none"
       id="path3029"
       sodipodi:cx="16"
       sodipodi:cy="16"
       sodipodi:rx="4"
       sodipodi:ry="4"
       d="m 20,16 a 4,4 0 1 1 -8,0 4,4 0 1 1 8,0 z"
       transform="matrix(0.70710678,-0.70710678,0.70710678,0.70710678,1.1507576,1028.584)" />
    <path
       sodipodi:type="arc"
       style="fill:#202020;stroke:none"
       id="path3078"
       sodipodi:cx="16"
       sodipodi:cy="16"
       sodipodi:rx="4"
       sodipodi:ry="4"
       d="m 20,16 a 4,4 0 1 1 -8,0 4,4 0 1 1 8,0 z"
       transform="matrix(0,-1,1,0,1.7605939e-5,1063.3622)" />
    <path
       transform="matrix(0,-1,1,0,-1.8032242e-5,1041.3622)"
       d="m 20,16 a 4,4 0 1 1 -8,0 4,4 0 1 1 8,0 z"
       sodipodi:ry="4"
       sodipodi:rx="4"
       sodipodi:cy="16"
       sodipodi:cx="16"
       id="path3080"
       style="fill:#202020;stroke:none"
       sodipodi:type="arc" />
    <path
       transform="matrix(-0.70710678,-0.70710678,0.70710678,-0.70710678,23.778187,1066.7678)"
       d="m 20,16 a 4,4 0 1 1 -8,0 4,4 0 1 1 8,0 z"
       sodipodi:ry="4"
       sodipodi:rx="4"
       sodipodi:cy="16"
       sodipodi:cx="16"
       id="path3082"
       style="fill:#202020;stroke:none"
       sodipodi:type="arc" />
    <path
       sodipodi:type="arc"
       style="fill:#202020;stroke:none"
       id="path3084"
       sodipodi:cx="16"
       sodipodi:cy="16"
       sodipodi:rx="4"
       sodipodi:ry="4"
       d="m 20,16 a 4,4 0 1 1 -8,0 4,4 0 1 1 8,0 z"
       transform="matrix(-0.70710678,-0.70710678,0.70710678,-0.70710678,8.2218126,1051.2115)" />
    <path
       sodipodi:type="arc"
       style="fill:#202020;stroke:none"
       id="path3086"
       sodipodi:cx="16"
       sodipodi:cy="16"
       sodipodi:rx="4"
       sodipodi:ry="4"
       d="m 20,16 a 4,4 0 1 1 -8,0 4,4 0 1 1 8,0 z"
       transform="matrix(-1,0,0,-1,42.999991,1052.3622)" />
    <path
       transform="matrix(-1,0,0,-1,21.000008,1052.3623)"
       d="m 20,16 a 4,4 0 1 1 -8,0 4,4 0 1 1 8,0 z"
       sodipodi:ry="4"
       sodipodi:rx="4"
       sodipodi:cy="16"
       sodipodi:cx="16"
       id="path3088"
       style="fill:#202020;stroke:none"
       sodipodi:type="arc" />
  </g>
</svg>
