<?xml version="1.0" encoding="UTF-8" standalone="no"?>
<!-- Generator: Adobe Illustrator 17.1.0, SVG Export Plug-In . SVG Version: 6.00 Build 0)  -->

<svg
   xmlns:dc="http://purl.org/dc/elements/1.1/"
   xmlns:cc="http://creativecommons.org/ns#"
   xmlns:rdf="http://www.w3.org/1999/02/22-rdf-syntax-ns#"
   xmlns:svg="http://www.w3.org/2000/svg"
   xmlns="http://www.w3.org/2000/svg"
   xmlns:sodipodi="http://sodipodi.sourceforge.net/DTD/sodipodi-0.dtd"
   xmlns:inkscape="http://www.inkscape.org/namespaces/inkscape"
   version="1.1"
   id="Layer_1"
   x="0px"
   y="0px"
   viewBox="-61 0 64 128"
   enable-background="new -61 0 392.6 40.8"
   xml:space="preserve"
   inkscape:version="0.48.5 r10040"
   width="100%"
   height="100%"
   sodipodi:docname="logo.svg"><metadata
     id="metadata3091"><rdf:RDF><cc:Work
         rdf:about=""><dc:format>image/svg+xml</dc:format><dc:type
           rdf:resource="http://purl.org/dc/dcmitype/StillImage" /><dc:title /></cc:Work></rdf:RDF></metadata><defs
     id="defs3089" /><sodipodi:namedview
     pagecolor="#000000"
     bordercolor="#666666"
     borderopacity="1"
     objecttolerance="10"
     gridtolerance="10"
     guidetolerance="10"
     inkscape:pageopacity="0"
     inkscape:pageshadow="2"
     inkscape:window-width="640"
     inkscape:window-height="480"
     id="namedview3087"
     showgrid="true"
     inkscape:zoom="22.627417"
     inkscape:cx="31.738297"
     inkscape:cy="30.157567"
     inkscape:current-layer="Layer_1"
     showguides="true"
     inkscape:guide-bbox="true"><inkscape:grid
       type="xygrid"
       id="grid3112"
       empspacing="5"
       visible="true"
       enabled="true"
       snapvisiblegridlinesonly="true" /><sodipodi:guide
       orientation="1,0"
       position="26,89"
       id="guide3850" /><sodipodi:guide
       orientation="1,0"
       position="37,86.421707"
       id="guide3852" /><sodipodi:guide
       orientation="1,0"
       position="32,77"
       id="guide3858" /></sodipodi:namedview><path
     style="fill:#000000;fill-opacity:1;stroke:none"
     d="m -92,28 c 0,0 0,-1 -2,-1 l -7,0 c -1,0 -2,0 -2,1 l 0,2 c 0,1 1,1 2,1 l 7,0 0,2 -9,0 c 0,0 0,1 2,1 l 7,0 c 1,0 2,0 2,-1 l 0,-2 c 0,-1 -1,-1 -2,-1 l -7,0 0,-2 z"
     id="path3826"
     inkscape:connector-curvature="0"
     sodipodi:nodetypes="ccccccccccccccccc" /><path
     d="m -26.380915,40.297927 h -8.152041 l -0.291144,0.23292 v 7.249497 h 2.24181 v -2.736755 l 0.203804,-0.203819 h 5.997573 c 1.513951,0 2.212698,-0.407609 2.212698,-1.455728 v -1.659527 c 0,-1.018998 -0.698747,-1.426607 -2.212698,-1.426607 m 0,2.678525 c 0,0.494959 -0.320257,0.582299 -1.048119,0.582299 h -4.920339 l -0.232917,-0.203829 v -1.543067 l 0.203804,-0.203819 h 4.949454 c 0.698747,0 1.048119,0.08731 1.048119,0.582299 v 0.786078 z"
     id="path3828"
     inkscape:connector-curvature="0"
     style="fill:#ffffff;fill-opacity:1" /><polyline
     transform="matrix(0.29114436,0,0,0.29114436,-60.095431,49.2186)"
     points="99.1,19.8 105.8,29.6 105.4,30.5 90.6,30.5 86.8,35.2 108.8,35.2 110.4,36.1 113.8,40.8    122.7,40.8 103.2,14.8  "
     id="polyline3830"
     style="fill:#ffffff;fill-opacity:1" /><g
     style="fill:#ffffff;fill-opacity:1"
     transform="matrix(0.29114436,0,0,0.29114436,-87.084506,50.464703)"
     id="g3832"><polyline
       style="fill:#ffffff;fill-opacity:1"
       id="polyline3834"
       points="187.4,35.8 187.4,28.8 188.2,28.1 203.1,28.1 203.1,23.7 179.5,23.7 179.5,40.8 214.3,40.8    214.3,36.4 188.3,36.4  "
       transform="translate(0,87.200002)" /><rect
       style="fill:#ffffff;fill-opacity:1"
       id="rect3836"
       height="4.8000002"
       width="35.099998"
       y="102.3"
       x="179.5" /></g><path
     d="m -32.291145,68.241956 h 8.239385 c -0.11646,-1.048109 -0.786089,-1.339258 -2.416498,-1.339258 h -5.91023 c -1.863324,0 -2.445612,0.349379 -2.445612,1.775987 v 3.959553 c 0,1.397498 0.582288,1.775987 2.445612,1.775987 h 5.91023 c 1.659522,0 2.30004,-0.320259 2.35827,-1.397488 h -8.181157 l -0.232915,-0.232919 v -4.367173"
     id="path3838"
     inkscape:connector-curvature="0"
     style="fill:#ffffff;fill-opacity:1" /><path
     d="m -26.29357,29.892446 h -5.96846 l -0.17469,-0.203829 V 28.40759 l 0.17469,-0.145473 h 8.064698 L -24.080875,28 c -0.262029,-0.698758 -0.98989,-1.048118 -2.30004,-1.048118 H -32 c -1.863325,0 -2.445613,0.34936 -2.445613,1.775967 v 0.844328 c 0,1.397498 0.582288,1.775987 2.445613,1.775987 h 5.968459 l 0.174689,0.174651 v 1.339258 l -0.145573,0.203829 h -6.841894 v 0 H -34.6203 c 0,0 -0.203805,0.116498 -0.203805,0.145473 0.145575,0.989898 0.815204,1.251937 2.416498,1.251937 h 6.114032 c 1.863324,0 2.474728,-0.349379 2.474728,-1.775987 v -1.019018 c 0,-1.397497 -0.611404,-1.775967 -2.474728,-1.775967"
     id="path3840"
     inkscape:connector-curvature="0"
     style="fill:#ffffff;fill-opacity:1" /><g
     style="fill:#ffffff;fill-opacity:1"
     transform="matrix(0.29114436,0,0,0.29114436,-100.85205,63.781639)"
     id="g3842"><path
       style="fill:#ffffff;fill-opacity:1"
       inkscape:connector-curvature="0"
       id="path3844"
       d="m 236.7,102.2 h -11.6 l -0.6,1.2 12.8,9.4 c 2.4,-1.4 5.1,-2.8 7.9,-4.2" /><path
       style="fill:#ffffff;fill-opacity:1"
       inkscape:connector-curvature="0"
       id="path3846"
       d="m 247.1,119.8 11.3,8.2 H 270 l 0.5,-1.1 -16.8,-12.3 c -2.2,1.7 -4.5,3.4 -6.6,5.2" /><path
       style="fill:#ffffff;fill-opacity:1"
       inkscape:connector-curvature="0"
       id="path3848"
       d="m 235,128 h -10.5 l -0.9,-1.4 c 7.1,-6.9 38.9,-36.299998 108,-39.399998 0,0 -57.9,2 -96.6,40.799998" /></g><path
     style="fill:#000000;fill-opacity:1;stroke:none"
     d="m -103,40 0,8 2,0 0,-3.71875 7,0 c 1,0 2,0 2,-1 L -92,41 c 0,-1 -1,-1 -2,-1 l -9,0 z m 2,1 7,0 0,2 -7,0 0,-2 z"
     id="path3854"
     inkscape:connector-curvature="0" /><path
     style="fill:#000000;fill-opacity:1;stroke:none"
     d="m -103,59 1,-1 5,0 -2,-3 1,-1.414062 L -92.40625,61 -95,61 -96.430893,59 z"
     id="path3860"
     inkscape:connector-curvature="0"
     sodipodi:nodetypes="ccccccccc" /><path
     style="fill:#000000;fill-opacity:1;stroke:none"
     d="m -103,68 c 0,-1 1,-1 2,-1 l 7,0 c 1,0 2,0 2,1 l -9,0 0,5 9,0 c 0,1 -1,1 -2,1 l -7,0 c -1,0 -2,0 -2,-1 z"
     id="path3862"
     inkscape:connector-curvature="0"
     sodipodi:nodetypes="ccccccccccc" /><path
     style="fill:#000000;fill-opacity:1;stroke:none"
     d="m -103,80 0,1 11,0 0,-1 -11,0 z"
     id="path3875"
     inkscape:connector-curvature="0" /><path
     style="fill:#000000;fill-opacity:1;stroke:none"
     d="m -103,83 7,0 0,1 -5,0 0,2 9,0 0,1 -11,0 z"
     id="path3877"
     inkscape:connector-curvature="0"
     sodipodi:nodetypes="ccccccccc" /><path
     style="fill:#000000;fill-opacity:1;stroke:none"
     d="m -103,93 0,0.677782 9,7.322218 2,0 0,-0.71274 L -101,93 z"
     id="path3887"
     inkscape:connector-curvature="0"
     sodipodi:nodetypes="ccccccc" /><path
     style="fill:#000000;fill-opacity:1;stroke:none"
     d="m -103,101 c 7,-8 17,-11 31,-12 -14,1.392116 -24,6 -28,12 z"
     id="path3891"
     inkscape:connector-curvature="0"
     sodipodi:nodetypes="cccc" /></svg>